<svg width="19" height="14" viewBox="0 0 19 14" fill="none" xmlns="http://www.w3.org/2000/svg">
<path fill-rule="evenodd" clip-rule="evenodd" d="M0.5 7C0.5 6.72673 0.605363 6.46465 0.792909 6.27141C0.980454 6.07818 1.23482 5.96962 1.50005 5.96962L15.0874 5.96963L11.4605 2.2328C11.2839 2.03748 11.1877 1.77913 11.1923 1.5122C11.1969 1.24526 11.3018 0.990572 11.485 0.801789C11.6683 0.613007 11.9155 0.50487 12.1745 0.50016C12.4336 0.49545 12.6844 0.594536 12.8739 0.776541L18.2075 6.27187C18.3948 6.46506 18.5 6.72695 18.5 7C18.5 7.27305 18.3948 7.53493 18.2075 7.72813L12.8739 13.2235C12.6844 13.4055 12.4336 13.5045 12.1745 13.4998C11.9155 13.4951 11.6683 13.387 11.485 13.1982C11.3018 13.0094 11.1969 12.7547 11.1923 12.4878C11.1877 12.2209 11.2839 11.9625 11.4605 11.7672L15.0874 8.03037L1.50005 8.03037C1.23482 8.03037 0.980454 7.92182 0.792908 7.72858C0.605363 7.53535 0.5 7.27327 0.5 7Z" fill="#0087c9"/>
</svg>
